<?xml version="1.0" encoding="utf-8"?>
<!-- Generator: Adobe Illustrator 22.1.0, SVG Export Plug-In . SVG Version: 6.00 Build 0)  -->
<svg version="1.1" id="Camada_1" xmlns="http://www.w3.org/2000/svg" xmlns:xlink="http://www.w3.org/1999/xlink" x="0px" y="0px"
	 viewBox="0 0 1920 1080" style="enable-background:new 0 0 1920 1080;" xml:space="preserve">
<style type="text/css">
	.st0{fill:#FFFFFF;}
</style>
<g>
	<path class="st0" d="M902.6,507v-15.9h6.1l26.1,40.9h90l-17.2-25h18.4v25h208.5v-25h8.7v25h77.6v-25h42.9V346.4h-73.8v21.2h-14.4
		v-21.2h-202.9v21.2h-20.1c-1.9-2.7-4.1-5.2-6.6-7.4c-10.6-9.2-28.2-13.8-53-13.8H828.9v21.2h-31.2c-5.7-5.6-12.5-10-20.6-13.2
		c-13.4-5.3-30.6-8-51.4-8H583.3v21.2h-14.4v-21.2h-69.5v21.2h-46.8v10.6l-28.1-31.8H337v21.2h-46.8v57L250,346.4H149.4l-11,21.2
		h-35L18,532h84.7l9-18.7h85.8l9.2,18.7h83.6h0.8h72.5v-25h42.9v-9l30.1,34H526v-25h10.5v25h144.3c21,0,38.5-2.7,52.1-8.1
		c11.1-4.4,20.1-11.1,26.8-19.9c6.3-1.3,12.1-2.9,17.3-5c1.8-0.7,3.4-1.5,5.1-2.3V532h77.6v-25H902.6z M689.3,457H657v-35.7h0.4
		c10.4,0,18.6,2.3,24.2,7c5.5,4.5,8.3,11.8,8.3,21.5C689.9,452.4,689.7,454.8,689.3,457z M684,425.4c-6.3-5.2-15.3-7.9-26.6-7.9H657
		v-21.2h45.2c10.9,0,19.4,2.5,25.4,7.4c6,4.9,9,12.6,9,22.9c0,10.3-3,18-9,22.9c-6,4.9-14.5,7.4-25.4,7.4h-9.1
		c0.4-2.3,0.6-4.7,0.6-7.2C693.7,438.9,690.5,430.7,684,425.4z M456.5,371.4h42.9v57.5h-1.8l-41.1-46.4V371.4z M176.2,446.2
		l22.5-45.9h1.3l22.7,45.9H176.2z M209,528.1l-9.2-18.7h-90.6l-9,18.7H24.3l81.4-156.7h30.7L66,507h80.3l9-18.7h88.2l9.2,18.7h21.2
		l10.9,21.2H209z M278.1,507h12.1v23.5L278.1,507z M359.7,528.1h-65.6V507h38.6l-38.6-75v-60.6H337V507h22.7V528.1z M522.1,528.1
		h-83.8l-31.8-36v-68.9h1.8l74,83.7h39.8V528.1z M731.5,520.3c-13.1,5.2-30.2,7.8-50.7,7.8H540.4V507h28.5V371.4h14.4V507h142.4
		c10.3,0,19.7-0.7,28.2-2C747.9,511.6,740.5,516.7,731.5,520.3z M902.6,423.5V422H919c3.7,0,6.3,0.6,8.3,1.5H902.6z M933.6,423.5
		c-2.5-3.1-7-5.4-14.6-5.4h-16.3V397h61.2c10.5,0,15.7,4.4,15.7,13.3c0,8.8-5.3,13.3-15.7,13.3H933.6z M1017.4,528.1h-80.5
		l-26.1-40.9h-8.2V466h52l26.1,40.9h22.2L1017.4,528.1z M1146.4,463.8v-20.9h76v20.9H1146.4z M1228.8,406h-82.3v-18.9h82.3V406z
		 M1232.6,387.1h10.5V406h-10.5V387.1z M1226.3,463.8v-20.9h16.8v20.9H1226.3z M1289.9,371.4V507h27v21.2H1247V507h30.3v-43.2H1247
		v-20.9h22.2V406H1247v-18.9h28.5v-15.7H1289.9z M1072.7,371.4V507h157.9v21.2h-200.8V507h36.2l-36.2-52.7v-6.2
		c9.8-2.8,17.6-7.5,23.1-14.2c6-7.2,9-17.7,9-31.5c0-12.4-2.3-22.7-6.9-31H1072.7z M855.9,528.1h-69.9v-33.5
		c9-5.2,16.2-12.3,21.3-21.3c6.7-11.8,10.1-27.3,10.1-46.7c0-19.3-3.4-34.9-10.1-46.7c-1.8-3.1-3.8-5.9-6-8.6h27.6V507h27V528.1z"/>
	<path class="st0" d="M1902,542.8h-211V564h-14.2v-21.2h-73.8V564h-46.8v85.6c0,2.3-0.2,4.4-0.6,6.4c-10.5-0.6-18.7-3-24.7-7.1
		c-7.1-4.9-10.7-12.3-10.7-22.4v-83.7h-73.8V564h-20.1c-1.9-2.7-4.1-5.2-6.6-7.4c-10.6-9.2-28.2-13.8-53-13.8h-164.2V564h-31
		c-3.6-3.4-7.6-6.4-12.2-9.2c-20.4-12.2-51.7-18.3-93.8-18.3c-42.9,0-74.6,7-95.2,21.1c-2.6,1.8-5.1,3.7-7.3,5.7
		c-15.5,3.6-28.4,8.8-38.6,15.8c-21.1,14.4-31.8,37-31.8,67c0,30.1,10.7,52.6,31.8,67c20.8,14.3,53.3,21.5,96.3,21.5
		c42.4,0,74.4-6.5,95-19.2c6.1-3.8,11.3-8.1,15.7-13.1c9.2-2.5,17.4-5.7,24.4-9.5v35.4h77.6v-25h42.9v-15.9h6.1l26.1,40.9h90
		l-17.2-25h33.2c8.7,10.9,21.2,18.9,37.4,23.7c16.9,5.1,38.7,7.6,64.9,7.6c26,0,47.7-2.6,64.6-7.6c15.7-4.7,28.1-12.5,36.9-23
		c2.6-0.6,5-1.3,7.4-2c4.8-1.4,9.2-3.2,13.3-5.1v31.4h220v-25h42.9v-48.8h-96.5l96.5-64.8V542.8z M1676.9,616.7h54.3l-57.2,38.4
		c1.9-7.5,2.9-15.9,2.9-25.2V616.7z M1560.2,649.6v-81.7h42.9v58.6c0,10-3.6,17.5-10.8,22.4c-7.2,4.9-17.4,7.3-30.6,7.3
		c-0.7,0-1.4,0-2.1,0C1560,654.1,1560.2,651.9,1560.2,649.6z M1276.5,620v-1.5h16.3c3.7,0,6.3,0.6,8.3,1.5H1276.5z M1307.5,620
		c-2.5-3.1-7-5.4-14.6-5.4h-16.3v-21.2h61.2c10.5,0,15.7,4.4,15.7,13.3c0,8.8-5.3,13.3-15.7,13.3H1307.5z M1092.9,651.3
		c-1.4,1-2.9,1.8-4.5,2.6h-30.9l-0.2,1.7c-0.1,0.8-0.2,1.6-0.4,2.4c-10.4-1-18.7-3.8-24.9-8.7c-7.7-6.1-11.6-14.8-11.6-26.2
		c0-3.7,0.5-7.1,1.3-10.2c10.6,0.2,19.1,2.3,25,6.3c6.1,4.1,9.6,8.9,10.4,14.3l0.2,1.6h46.3C1102.3,641.7,1098.8,647.1,1092.9,651.3
		z M1074.6,657.8c-3,0.4-6.2,0.6-9.7,0.6c-1.4,0-2.8-0.1-4.1-0.1c0-0.2,0.1-0.3,0.1-0.5H1074.6z M1060.6,631.3
		c-1.4-5.8-5.3-11-11.8-15.3l0,0c-6.4-4.3-15.1-6.6-25.9-6.9c1.9-4.8,4.9-8.9,9.1-12.1c7.7-6.1,18.7-9.1,32.9-9.1
		c11.8,0,21.1,2.2,27.7,6.6c6.6,4.4,10.3,9.6,11.2,15.6h36.1c2.4,6.4,3.8,13.5,4.1,21.2H1060.6z M1114,712.3
		c-20,12.3-51.3,18.6-93,18.6c-42.3,0-74-7-94.2-20.8c-20-13.6-30.1-35.1-30.1-63.9c0-28.7,10.1-50.2,30.1-63.9
		c8.4-5.7,18.8-10.3,31.1-13.7c-12.2,13.6-18.3,31.7-18.3,54.4c0,29.5,10.3,51.4,30.9,65.4c20.6,14.1,52.4,21.1,95.2,21.1
		c22.8,0,42.4-1.8,58.8-5.5C1121.4,707.2,1117.9,709.9,1114,712.3z M1147.9,632.8c-0.2-8.2-1.5-15.8-3.9-22.7h12v22.7H1147.9z
		 M1229.8,724.6h-69.9v-33.8c20.4-12.6,30.8-31.9,31.4-58h-31.4v-22.7h31c-0.3-17-5.4-31.1-15.3-42.2h27.2v135.5h27V724.6z
		 M1391.3,724.6h-80.5l-26.1-40.9h-8.2v-21.2h52l26.1,40.9h22.2L1391.3,724.6z M1580.4,723.4c-16.5,4.9-37.9,7.5-63.5,7.5
		c-25.8,0-47.2-2.5-63.8-7.5c-14.1-4.2-25.4-11-33.5-20h20.2l-36.2-52.7v-6.2c9.8-2.8,17.6-7.5,23.1-14.2c6-7.2,9-17.7,9-31.5
		c0-12.4-2.3-22.7-6.9-31h17.7v62c0,19.8,4.3,35.5,12.8,47.2c8.5,11.7,21.2,20.1,38,25.1c16.8,5,38.2,7.5,64.3,7.5
		c19.2,0,36-1.4,50.2-4.2C1603.9,713.5,1593.4,719.6,1580.4,723.4z M1855.2,724.6H1643v-29.5c8.6-4.7,15.6-10.7,21-18
		c3.5-4.7,6.2-10.2,8.3-16.2l71.6-48.1h-67v-45h14.2v23.8h91.3l-96.5,64.8v47h169.4V724.6z"/>
</g>
</svg>
