<?xml version="1.0" encoding="utf-8"?>
<!-- Generator: Adobe Illustrator 22.1.0, SVG Export Plug-In . SVG Version: 6.00 Build 0)  -->
<svg version="1.1" id="Camada_1" xmlns="http://www.w3.org/2000/svg" xmlns:xlink="http://www.w3.org/1999/xlink" x="0px" y="0px"
	 viewBox="0 0 1711.2 91.5" style="enable-background:new 0 0 1711.2 91.5;" xml:space="preserve">
<style type="text/css">
	.st0{fill:#FFFFFF;}
</style>
<g>
	<path class="st0" d="M199.5,0h-45.4l-8.6,16.6h-17.7l-16.5,31.7H59.8V0H26.5v16.6H0v74.9h88.9h6.2H128l4.1-8.4h38l4.2,8.4h39
		l-9.8-19h33.4L199.5,0z M176.1,24.8l10.4,20.3h-20.4L176.1,24.8z M129.3,19.1h14.8l-24.9,48V48.3h-5L129.3,19.1z M98.7,72.5
		L95,79.6v-7.1H98.7z M2.4,88.9V19h24v53.5h66.1v11.9l-2.3,4.5H2.4z M175.9,88.9l-4.2-8.4h-41.3l-4.1,8.4H95V85l6.5-12.5h14.8h2.8
		h33.4l4.1-8.4h6.9l0,0h32.7L209,89L175.9,88.9L175.9,88.9z"/>
	<path class="st0" d="M919.9,0h-45.4l-8.6,16.6h-12.8V0H751.3v16.6h-1.5V0h-33.3v16.6h-5.7c-0.2-0.5-0.5-0.9-0.7-1.4
		c-3-5.3-7.6-9.2-13.7-11.6S682.6,0,673.2,0h-64.3v16.6h-3.1V0h-91.7v16.6h-6.6c-2.3-3.9-5.4-7.2-9.4-9.9c-9.4-6.3-24-9.5-43.7-9.5
		s-34.3,3.2-43.7,9.5c-3.9,2.6-7,5.9-9.3,9.7c-2.4,0.5-4.6,1.2-6.7,1.9V0h-51.1l-6.2,16.6h-14.2L316.9,0h-49.3v16.6h-27v74.9h33.8
		v-19h9.6l7.8,19h25.3l7.7-19h9.3v19h35.8v-19h3.2c2.4,4.9,6,8.9,10.7,12.1c9.6,6.4,24.5,9.7,44.3,9.7s34.7-3.3,44.3-9.7
		c4.8-3.2,8.5-7.4,10.9-12.5c1-0.3,2.1-0.6,3-0.9v20.2h94.6h0.2h65.3c9.5,0,17.5-1.2,23.6-3.7c6.3-2.5,11.1-6.6,14.3-12.1
		c0.7-1.3,1.4-2.7,1.9-4.1c0.7-0.1,1.4-0.2,2.1-0.4v20.3h35.8v-19h25.4V44h7.7v47.4H793v-19h24.5l-9.8,19h39.1l4.1-8.4h38.2l4.2,8.4
		h39l-9.8-19h34.8L919.9,0z M895.8,26.2l9.7,18.9h-19L895.8,26.2z M818.8,25.1h6.1v16.5h-6.1V25.1z M642.2,50v-7.6
		c1.8,0.5,3.3,1.3,4.6,2.3c1.6,1.3,2.6,3.1,3.2,5.3H642.2z M652.5,50c-0.6-3.1-2-5.5-4.1-7.3c-1.7-1.4-3.7-2.4-6.2-3V22.5h20.4
		c4.9,0,8.8,1.1,11.5,3.4c2.7,2.2,4.1,5.7,4.1,10.4s-1.4,8.1-4.1,10.4c-2.7,2.2-6.5,3.4-11.5,3.4h-10.1V50z M578.1,19.1v7.8h-30.7
		v-7.8H578.1z M575.2,53h-27.8v-7.1h27.8V53z M577.8,53v-9.5h3.5V53H577.8z M580.6,26.9v-8.5h0.6v8.5H580.6z M475.8,36.2
		c0,5.1-1.8,9.1-5.4,11.8c-3.6,2.7-8.9,4.1-15.9,4.1c-1.3,0-2.5-0.1-3.6-0.2c-0.4-4.6-2.4-8.2-5.8-10.9c-2.9-2.2-6.9-3.6-11.8-4.1
		c0-0.3,0-0.5,0-0.8c0-5.1,1.8-9.1,5.4-11.8c3.6-2.7,8.9-4.1,15.9-4.1c2.9,0,5.4,0.2,7.7,0.7c3.4,1.3,6.5,2.8,9.1,4.5
		c0.4,0.3,0.7,0.5,1.1,0.8C474.6,28.9,475.8,32.2,475.8,36.2z M438.5,48.1c-2.8-2.1-4.5-4.9-5.1-8.4c4.2,0.5,7.6,1.7,10,3.6
		c2.8,2.1,4.3,4.9,4.8,8.6C444.2,51.1,441,49.9,438.5,48.1z M336.6,19.1l-5.7,15.3h-0.8l-5.8-15.3H336.6z M300,27.2l6.8,16.6
		l-2.2,5.9L299.1,35v-7.8H300z M272,88.9h-28.7V19h24.5v53.5h4.2V88.9z M315.5,88.9h-21.9l-6.7-16.4h12.2V42.1l4.3,11.3h2.6l2.3-6.2
		l10.4,25.3h3.7L315.5,88.9z M367.5,88.9h-30.7V72.5h5.5l18.4-45h0.8v45h6.1L367.5,88.9L367.5,88.9z M471.2,82.5
		c-9.1,6.1-23.6,9.3-42.9,9.3c-19.3,0-33.8-3.1-42.9-9.3c-3.9-2.7-7-6-9.3-10h18.6V20.9c1.6-0.6,3.3-1.1,5.1-1.6
		c-2.2,4.8-3.3,10.5-3.3,16.9c0,13.1,4.5,22.8,13.4,29.1c0.5,0.5,1,1,1.6,1.5c2,1.5,4.6,2.7,7.6,3.4c8.9,3.4,20.6,5.1,35.1,5.1
		c9.9,0,18.5-0.8,25.8-2.4C478,76.8,475,80,471.2,82.5z M489.1,88.9V70.3c3.4-1.3,6.4-2.8,9-4.5c9.4-6.3,14.1-16.2,14.1-29.6
		c0-6.6-1.1-12.3-3.4-17.2h5.2v53.5h64.8v16.4L489.1,88.9L489.1,88.9z M682.4,74.4c-2.9,5-7.3,8.7-13,11c-5.9,2.3-13.5,3.5-22.7,3.5
		h-62.9V72.5h22.8V53h-22.8v-9.5h19.1V26.8h-19.1V19h25.1v53.5h64.3c3.7,0,7.2-0.2,10.4-0.6C683.2,72.8,682.8,73.6,682.4,74.4z
		 M721.9,88.9h-30.8V70.5c1.9-0.5,3.6-1,5.3-1.7c6.1-2.4,10.6-6.3,13.7-11.6c3-5.3,4.6-12.3,4.6-21.1c0-6.8-0.9-12.5-2.7-17.2h4.6
		v53.5h5.4L721.9,88.9L721.9,88.9z M790.7,88.9H760V41.5h-10.2V19h1.5v6h34.1v47.5h5.3V88.9L790.7,88.9z M818.8,44.1h8.6v-19h14.9
		l-23.6,45.4L818.8,44.1L818.8,44.1z M894.9,88.9l-4.2-8.4h-41.3l-4.1,8.4H812L845.2,25h7.8v-6h11.5l-27.8,53.5h36.4l4.1-8.4h5.5
		l0,0h32.7L928.2,89L894.9,88.9L894.9,88.9z"/>
	<path class="st0" d="M1670.8,64.1l4.2,8.4h36.2l-37.4-72.6h-45.4l-8.6,16.6H1607V0h-101.9v16.6h-1.5V0h-91.7v16.6h-2.5
		c-1.1-4.3-3.2-7.7-6.1-10.3c-4.8-4.2-12.8-6.2-23.9-6.2h-74.3v16.6h-5.3c-2.4-4.5-6-8.2-10.8-11.1c-9.2-5.5-23.3-8.3-42.4-8.3
		c-19.4,0-33.7,3.2-43,9.6c-3.7,2.5-6.6,5.6-8.9,9.2c-1.9,0.4-3.8,0.8-5.5,1.3V0h-91.7v16.6h-5.4c-1-3.8-2.8-7-5.6-9.6
		c-4-3.7-9.8-6.2-17.3-7.7c-7.6-1.5-17.2-2.2-29-2.2c-11.9,0-21.7,0.7-29.3,2.2c-7.6,1.5-13.4,4-17.4,7.6c-2.5,2.2-4.2,5-5.1,8.2
		c-1.7,0.2-3.4,0.5-5,0.8c-7.8,1.5-13.8,4.1-18,7.9s-6.3,9.1-6.3,15.6c0,7.9,2.7,13.6,8.1,17.1c5.2,3.4,12.9,5.5,22.9,6.4h0.2
		c0.6,0.7,1.2,1.5,1.8,2.1l0,0h-34.8v1.3c0.3,7.4,2.5,13.2,6.7,17.3c4.1,4,10.2,6.8,18.1,8.4c7.8,1.5,18.3,2.3,31.3,2.3
		c13.4,0,24.1-0.7,32-2.1c8-1.4,14.1-4.1,18.1-8c2.6-2.5,4.4-5.8,5.4-9.8v17h94.8v-19h1c2.4,4.8,5.9,8.9,10.6,12
		c9.5,6.5,24.2,9.8,43.7,9.8c19.2,0,33.7-2.9,43.1-8.7c5.3-3.3,9.2-7.6,11.7-12.8c0.8-0.2,1.6-0.4,2.4-0.6v19.3h35.8V73h21.5
		l11.8,18.5h37.6h4h90.8v-19h26.9V53h-30.5v-9.5h1.8v0.6h34.1v47.4h35.8v-19h24.5l-9.8,19h39.1l4.1-8.4h38.2l4.2,8.4h39L1671,64.1
		H1670.8z M1651.1,24.3l10.3,20.7h-0.7l-10.4-20.2l0.3-0.5H1651.1z M1648.9,27.7l9,17.4h-17.5L1648.9,27.7z M1572.6,25.1h4.6v16.5
		h-4.6V25.1z M1445.3,26.9v-7.8h28.9v7.8H1445.3z M1411.9,19.1v53l-17.1-24.9v-1c4.9-1.2,8.8-3.5,11.5-6.7c2.7-3.3,4.1-8,4.1-14.2
		c0-2.2-0.2-4.3-0.5-6.2L1411.9,19.1L1411.9,19.1z M1338.5,34.8v-12h27.6c4.7,0,7.1,2,7.1,6s-2.4,6-7.1,6H1338.5z M1258.4,23.1
		c0.1,0.1,0.2,0.1,0.3,0.2c3,2,4.7,4.4,5.1,7.1h4.1c2.5,2.9,4.3,6.4,5.2,10.3h-9.2c-0.3,2.4-1.2,4.5-2.7,6.2h-24
		c-0.7-2.6-2.5-4.9-5.4-6.8l0,0c-1.6-1-3.4-1.8-5.6-2.4c0-0.5-0.1-0.9-0.1-1.4c0-5.1,1.7-9.1,5.2-11.8s8.5-4.1,14.9-4.1
		c3.2,0,5.9,0.4,8.2,1.1C1255.8,21.9,1257.2,22.5,1258.4,23.1z M1231.3,48.1c-2.5-2-4.1-4.5-4.8-7.7c1.4,0.4,2.7,1,3.8,1.7
		c2.7,1.8,4.2,3.8,4.5,6.2l0.2,1.1h23.2c-2.9,1.9-6.9,2.8-12,2.8C1239.8,52.2,1234.8,50.8,1231.3,48.1z M1275.7,40.6
		c-0.9-3.8-2.4-7.2-4.6-10.3h5.1v10.3H1275.7z M1160.4,19.1v7.8h-29.5v-7.8H1160.4z M1157.6,53h-26.7v-7.1h26.7V53z M1160.1,53v-9.5
		h1.8c-0.7,2.9-1,6.1-1.1,9.5H1160.1z M1162.9,26.9v-8.5h22.7c-3.9,1.4-7.4,3.1-10.3,5.1c-1.5,1-2.9,2.2-4.2,3.4H1162.9z
		 M1041.7,18.4c7.3,1.4,12.9,3.9,16.7,7.3c0.3,0.2,0.5,0.5,0.7,0.7l-24.3-1.8c-3.5-0.3-6-0.7-7.3-1.4c-1.4-0.6-2-1.6-2-3
		c0-1.5,0.9-2.7,2.6-3.6C1033.2,17.1,1037.8,17.6,1041.7,18.4z M1066.1,27l-3.5-0.3c-0.8-1-1.6-2-2.6-2.9c-0.7-0.7-1.5-1.3-2.3-1.9
		h11.2v5.2C1068,27.2,1067.1,27.1,1066.1,27z M1053.7,19.6c-3.3-1.6-7.1-2.9-11.5-3.7c-1.5-0.3-3.1-0.5-4.7-0.8c0.7,0,1.4,0,2.2,0
		C1046.9,15.1,1051.6,16.6,1053.7,19.6z M968.6,54.4c-4.7-3.1-6.9-8-6.9-15c0-5.9,1.8-10.4,5.5-13.8c3.8-3.4,9.4-5.8,16.7-7.3
		c1.2-0.2,2.6-0.4,3.9-0.6c-0.2,1.2-0.3,2.5-0.3,3.9c0,7.5,2.5,12.8,7.5,16.1c0.6,0.4,1.3,0.8,2,1.2c0.2,1.2,0.8,2.5,2.7,3.3
		c1.5,0.7,4,1.2,7.8,1.5l31.2,2.3c7.2,0.5,13.1,1.8,17.5,3.8c0.2,0.5,0.4,1.1,0.4,1.8c0,1.9-1.2,3.3-3.6,4.3
		c-2.4,0.9-6.3,1.4-11.7,1.4c-5.1,0-9-0.6-11.6-1.9c-2.6-1.3-4.3-3.5-5.1-6.7h-38.8c0.2,4.5,1.1,8.4,2.8,11.6
		C979.9,59.3,973.2,57.4,968.6,54.4z M1013.2,73.7c-4.4-0.1-7.8-0.7-10-1.8c-0.6-0.3-1.2-0.7-1.7-1.1c2.4,0.9,5.2,1.7,8.2,2.3
		C1010.8,73.3,1011.9,73.5,1013.2,73.7z M1061.8,82.4c-3.7,3.5-9.3,6-16.8,7.3c-7.7,1.4-18.3,2.1-31.5,2.1
		c-12.8,0-23.2-0.7-30.8-2.2c-7.4-1.4-13.1-4-16.8-7.7c-3.4-3.4-5.4-8.2-5.8-14.3h35.2c0.5,0.3,1.1,0.7,1.6,1
		c1.1,2.5,2.8,4.4,5.1,5.6c2.8,1.4,6.8,2.1,12.2,2.1c5.2,0,9-0.4,11.5-1.3c4.5,0.3,9.5,0.4,15,0.4c10.2,0,18.7-0.4,25.7-1.2
		C1065.5,77.5,1064,80.3,1061.8,82.4z M1161.2,88.9h-89.8V73.4c0.4-0.1,0.7-0.1,1.1-0.2c7.8-1.4,13.6-3.9,17.5-7.7
		c3.9-3.7,5.8-9.1,5.8-16.2c0-7.3-2.5-12.7-7.4-16.2c-4-2.8-9.7-4.7-17-5.7V22h21.5c0-1-0.2-2-0.3-3h4.9v53.5h63.7L1161.2,88.9
		L1161.2,88.9z M1260.7,83.5c-8.9,5.5-23,8.3-41.7,8.3c-19,0-33.2-3.1-42.2-9.3c-3.9-2.7-6.9-6-9.1-10h22.4V53h-26.7
		c0.1-3.4,0.4-6.5,1.2-9.5h21.8V26.8h-11.5c0.6-0.5,1.2-0.9,1.8-1.4c4.3-2.9,9.8-5.2,16.4-6.7c-2.3,4.9-3.5,10.7-3.5,17.4
		c0,10.9,3.1,19.5,9.4,25.8c0.9,1.9,2.2,3.5,3.9,4.8c2.8,2.2,6.6,3.6,11.1,4.1c8.5,2.9,19.4,4.4,32.6,4.4c9.1,0,17.1-0.7,23.9-1.9
		C1268.3,77.4,1265,80.8,1260.7,83.5z M1278.6,88.9V71.4c4-1.2,7.5-2.8,10.4-4.6c9.2-5.7,14-14.4,14.2-26.2h-24.7V30.3h24.5
		c-0.1-4.2-0.8-7.9-2.1-11.3h4.1v53.5h4.2v16.4L1278.6,88.9L1278.6,88.9z M1346.5,88.9L1336,72.5h2.4V54h23.5l5.4,8.5
		c-0.2,0.1-0.5,0.1-0.7,0.2l-1,0.2v2.4l16.2,23.6H1346.5z M1368.4,64.9c0.1,0,0.3-0.1,0.4-0.1l5,7.8h9v13.2L1368.4,64.9z M1475,88.9
		h-89.8V72.5h26.7h0.3h62.7v16.4H1475z M1445.3,53v-7.1h26.1V53H1445.3z M1543,88.9h-30.7V41.5h-11.6V26.8h-22.5V19h26.9v6h34.1
		v47.5h3.8L1543,88.9L1543,88.9z M1572.6,44.1h7.2v-19h14.9l-22.1,42.5V44.1z M1680.5,88.9h-33.2l-4.2-8.4h-41.3l-4.1,8.4h-33.3
		l33.2-63.9h9.3v-6h11.5l-27.8,53.5h36.3l4.1-8.4h4.1l0,0h32.7L1680.5,88.9z"/>
</g>
</svg>
